PathFileType	4	(X/Y/Z)	..\data\2015007\dynamic\2015007_C5_03.trc
DataRate	CameraRate	NumFrames	NumMarkers	Units	OrigDataRate	OrigDataStartFrame	OrigNumFrames
100.000000	100.000000	4	52	mm	100.000000	52	139
Frame#	Time	L_IAS			L_IPS			R_IPS			R_IAS			L_FTC			L_FLE			L_FME			L_FAX			L_TTC			L_FAL			L_TAM			L_FCC			L_FM1			L_FM2			L_FM5			R_FTC			R_FLE			R_FME			R_FAX			R_TTC			R_FAL			R_TAM			R_FCC			R_FM1			R_FM2			R_FM5			CV7			TV10			SXS			SJN			L_SIA			L_SRS			L_SAA			L_SAE			L_HLE			L_HME			L_UOA			L_RSP			L_UHE			L_HM2			L_HM5			R_SIA			R_SRS			R_SAA			R_SAE			R_HLE			R_HME			R_UOA			R_RSP			R_UHE			R_HM2			R_HM5			
		X1	Y1	Z1	X2	Y2	Z2	X3	Y3	Z3	X4	Y4	Z4	X5	Y5	Z5	X6	Y6	Z6	X7	Y7	Z7	X8	Y8	Z8	X9	Y9	Z9	X10	Y10	Z10	X11	Y11	Z11	X12	Y12	Z12	X13	Y13	Z13	X14	Y14	Z14	X15	Y15	Z15	X16	Y16	Z16	X17	Y17	Z17	X18	Y18	Z18	X19	Y19	Z19	X20	Y20	Z20	X21	Y21	Z21	X22	Y22	Z22	X23	Y23	Z23	X24	Y24	Z24	X25	Y25	Z25	X26	Y26	Z26	X27	Y27	Z27	X28	Y28	Z28	X29	Y29	Z29	X30	Y30	Z30	X31	Y31	Z31	X32	Y32	Z32	X33	Y33	Z33	X34	Y34	Z34	X35	Y35	Z35	X36	Y36	Z36	X37	Y37	Z37	X38	Y38	Z38	X39	Y39	Z39	X40	Y40	Z40	X41	Y41	Z41	X42	Y42	Z42	X43	Y43	Z43	X44	Y44	Z44	X45	Y45	Z45	X46	Y46	Z46	X47	Y47	Z47	X48	Y48	Z48	X49	Y49	Z49	X50	Y50	Z50	X51	Y51	Z51	X52	Y52	Z52	

53	0.52	609.4346923828126	879.9665527343752	-362.1941223144532	391.9425354003907	886.6396484375002	-289.1394653320313	397.6834106445314	893.035339355469	-183.8291168212891	614.0816040039064	875.822204589844	-112.0885391235352	540.8736572265626	773.8150024414065	-421.6947021484376	714.7988281250001	445.1447753906251	-360.3679504394532	708.7701416015626	426.6554565429689	-238.5424346923829	714.5541381835939	385.2274169921876	-368.2700195312501	763.7418212890626	387.3116455078126	-312.9806518554688	752.0714111328126	65.26615142822267	-334.2373657226563	769.793884277344	74.04064941406251	-253.224105834961	714.3370361328126	13.09927654266358	-283.0365600585938	885.2117309570315	34.12129592895509	-268.3307189941407	884.9844360351565	42.67697906494141	-315.9468383789063	838.1439208984377	18.90353202819825	-356.0423889160157	505.5151367187501	782.621765136719	-52.39363098144533	424.0790405273439	421.1365356445314	-110.4420852661133	418.2589416503907	405.6672973632814	-237.7242279052735	382.3955993652344	380.0478210449219	-106.0578765869141	421.6426086425782	342.2742309570313	-149.0434722900391	164.4226531982422	133.8267822265625	-134.9126129150391	197.5762329101563	126.6331558227539	-214.911117553711	108.4936065673828	123.5842590332032	-191.1711578369141	234.5309753417969	19.1318473815918	-206.8647918701172	235.3706970214844	31.21159553527833	-162.07763671875	182.2551422119141	30.35932922363282	-113.1239929199219	503.3871459960939	1379.477783203125	-228.1493530273438	400.2112121582032	1140.971435546875	-235.0431365966797	665.3023071289064	1046.178955078125	-255.1154479980469	613.7178344726564	1297.508178710938	-245.0578765869141	393.8803100585939	1187.952270507813	-319.2462158203126	438.0318603515626	1314.715698242188	-330.6723632812501	473.4652099609376	1317.9052734375	-395.9653625488282	520.8743286132814	1326.964233398438	-414.7153320312501	410.352508544922	1039.774536132813	-479.9353332519532	400.436737060547	1034.650634765625	-401.8981933593751	380.9396667480469	1026.670532226563	-448.7008666992189	415.003387451172	797.0532226562502	-478.9971923828126	350.7094116210938	824.7285156250002	-515.6661376953126	407.289520263672	730.1728515625001	-491.2889404296876	324.3278198242188	769.724304199219	-517.7238159179689	403.0924377441407	1183.847778320313	-152.7416534423828	448.4981994628907	1307.517578125	-152.3909301757813	507.6022949218751	1311.185180664063	-84.37235260009767	555.4882812500001	1314.48974609375	-73.86990356445314	580.2903442382814	994.1824340820315	15.63596725463868	540.4479980468751	971.2015380859377	-44.0351676940918	558.8209838867189	954.4575195312502	-0.1881574392318726	749.3114013671876	845.977233886719	-33.78854370117188	716.1049194335939	820.4044189453127	12.38291263580323	814.450378417969	795.6240234375002	-35.78745651245118	755.8918457031251	764.9056396484376	16.21863746643067	
54	0.53	626.1280517578126	881.2293090820315	-363.7770690917969	409.1135559082032	887.500183105469	-289.8300476074219	415.3281860351564	892.9807128906252	-183.9303283691407	631.5258178710939	875.3359985351565	-114.7403564453125	557.5056762695314	775.445739746094	-423.3480224609376	730.7194213867189	445.4469604492189	-360.6365661621094	724.9995117187501	428.1822509765626	-239.0835113525391	729.6690063476564	385.5684814453126	-368.3159790039063	777.651550292969	386.3537597656251	-312.7705993652344	754.9479370117189	64.28235626220705	-333.6181030273438	771.7672119140627	72.36486816406251	-252.2467346191407	714.2887573242189	13.25556945800782	-283.2754211425782	886.4831542968752	28.60222244262696	-266.6830444335938	887.495544433594	37.3994255065918	-314.8182983398438	838.9929199218752	15.89069652557373	-355.5393676757813	524.3596191406251	780.810485839844	-53.65880584716798	449.3870849609376	418.4770812988282	-110.1421203613282	444.8486328125001	401.4297180175782	-237.1825256347657	406.8022460937501	378.8299255371094	-105.4465789794922	445.1618041992189	339.5384216308594	-147.467758178711	178.6764373779297	142.6247863769532	-133.4900817871094	212.2566375732422	132.337631225586	-212.6951599121094	123.7988662719727	136.3076629638672	-190.9481048583985	238.5552673339844	21.44345855712891	-205.9893493652344	240.0985565185547	32.81472778320313	-161.4471130371094	187.7713165283203	36.50652313232423	-112.6526641845703	519.9021606445314	1380.224243164063	-229.1188659667969	417.2029113769532	1141.5517578125	-235.6574859619141	683.1803588867189	1047.149047851563	-257.7743225097657	630.2650146484376	1298.325561523438	-246.4618072509766	410.6781311035157	1188.416625976563	-319.9995727539063	454.3296203613282	1315.299682617188	-331.5883789062501	489.596405029297	1318.535400390625	-397.0266113281251	536.9220581054689	1327.7646484375	-415.8528747558595	427.9779357910157	1039.892822265625	-481.0194396972657	418.3005981445314	1034.74609375	-402.9938049316407	398.4611816406251	1026.620239257813	-449.6985473632814	434.5014953613282	797.2971801757815	-480.0039978027345	369.8641967773438	824.3475341796877	-516.4761962890626	427.3473205566407	730.3668212890626	-492.1466369628907	343.9398498535157	769.0942382812502	-518.3432006835939	420.258026123047	1184.296752929688	-153.3801879882813	465.2454833984376	1308.162109375	-153.1937255859375	524.7210693359376	1311.822998046875	-85.47615051269533	572.5856323242189	1315.169677734375	-75.2074661254883	595.5870361328126	994.5590820312502	13.98195457458496	555.5973510742189	972.0662231445315	-45.81190490722657	573.7216186523439	955.1563110351565	-1.835891246795655	762.0211791992189	842.5084228515627	-33.06390762329102	727.7406616210939	817.8177490234377	12.80097389221192	826.0717773437502	790.7890625000002	-34.14563369750977	766.2173461914064	761.6878662109376	17.47484016418457	
55	0.54	642.5515136718751	882.8642578125002	-365.4141845703126	426.0038146972657	888.6752929687502	-290.3600463867188	432.8083801269532	893.1160278320315	-183.8572998046875	648.7148437500001	875.021179199219	-117.4050216674805	573.7866821289064	777.5076293945315	-425.069793701172	745.6087036132814	445.7350463867189	-361.0723266601563	739.9325561523439	429.6219787597657	-239.7663879394532	743.7114257812501	385.9502868652345	-368.5614318847657	790.5070800781252	385.4849853515626	-312.7251586914063	757.3234863281251	63.66358184814455	-333.1273193359376	773.2667236328127	71.18527221679689	-251.4099884033204	714.1028442382814	13.554594039917	-283.5754699707032	887.3319091796877	24.23490142822266	-265.2648010253907	889.5021972656252	33.25566864013673	-313.9411010742188	839.5345458984377	13.7498369216919	-355.2883911132813	543.2087402343751	779.129577636719	-54.87991333007814	475.7810363769532	415.982391357422	-109.8910140991211	472.7141723632814	397.3369750976564	-236.7546997070313	432.5456542968751	377.8283386230469	-104.8859786987305	470.0044860839845	337.1717224121094	-145.9097595214844	195.0655364990235	151.7033843994141	-132.4324951171875	229.0782318115235	138.2714080810547	-210.8063659667969	141.37939453125	148.9037017822266	-191.1125640869141	245.2407989501954	24.49059486389161	-204.6990661621094	247.2674102783204	35.17627334594727	-160.4597930908203	195.7000579833985	43.69124221801759	-112.0767822265625	536.4031982421876	1381.336669921875	-229.9829559326172	434.0450134277345	1142.569580078125	-236.1385650634766	701.2059936523439	1048.234130859375	-260.3807678222657	646.7721557617189	1299.42138671875	-247.7218627929688	427.4502258300782	1189.291625976563	-320.6802368164063	470.6318664550782	1316.276733398438	-332.4320678710938	505.7804260253907	1319.523315429688	-398.015350341797	553.0455932617189	1328.89501953125	-416.8895568847657	445.8590087890626	1040.280883789063	-482.1472473144532	436.3631896972657	1035.07080078125	-404.1615295410157	416.3149414062501	1026.776245117188	-450.7992553710939	454.6275939941407	797.8353271484377	-481.0780639648439	389.6318359375001	824.1536865234377	-517.3881835937501	448.1785583496095	730.8601684570314	-493.1231079101564	364.2713012695313	768.5969848632815	-519.1157226562501	437.3004760742189	1185.188232421875	-153.8779449462891	481.9328002929689	1309.21875	-153.8710632324219	541.8298339843751	1312.85546875	-86.43199920654298	589.6956176757814	1316.185180664063	-76.44310760498048	610.6078491210939	995.2351684570315	12.30788707733155	570.5582275390626	973.2590332031252	-47.64083862304688	588.3871459960939	956.1777343750002	-3.528865814208985	774.121032714844	839.0755615234377	-32.20784378051759	738.6969604492189	815.386657714844	13.31037616729737	836.909118652344	785.8779296875002	-32.33090972900391	775.6965942382815	758.5723876953126	18.84072494506836	
56	0.55	658.6748046875001	884.8616943359377	-367.0959167480469	442.5547485351564	890.1798095703127	-290.7689514160157	450.0556030273439	893.4885253906252	-183.7008056640625	665.6068115234376	874.9409179687502	-120.0054397583008	589.6804199218751	779.9431762695315	-426.8330688476564	759.2412719726564	445.928192138672	-361.6678771972657	753.3771972656251	430.8712158203126	-240.5594329833985	756.4341430664064	386.2776489257814	-368.9919128417969	802.1622314453127	384.6491699218751	-312.8710937500001	759.2708129882814	63.35870742797853	-332.7492370605469	774.411560058594	70.45510101318361	-250.7145538330079	713.9218750000001	13.93644428253174	-283.8850402832032	887.9036865234377	21.04107284545899	-264.1216430664063	891.0942993164065	30.25587844848634	-313.3343200683594	839.8899536132815	12.4278678894043	-355.2670593261719	561.9443969726564	777.6978759765627	-56.08342361450197	503.0910644531251	413.808563232422	-109.7221603393555	501.6803283691407	393.6045837402345	-236.4726867675782	459.4842834472657	377.1539916992188	-104.4299468994141	496.0624084472657	335.3027038574219	-144.4588012695313	213.6090698242188	160.8542938232422	-131.8056793212891	248.0573120117188	144.3356170654297	-209.3364715576172	161.1568603515625	161.0115966796875	-191.6710052490235	255.0689239501954	28.20552444458009	-202.9674530029297	257.3327636718751	38.30632019042969	-159.0902404785157	206.4496002197266	51.72788619995119	-111.3860702514649	552.8514404296876	1382.802612304688	-230.7311553955079	450.6923828125001	1144.00634765625	-236.5149536132813	719.2578125000001	1049.446166992188	-262.8340454101563	663.2037353515626	1300.794677734375	-248.809066772461	444.1509094238282	1190.571899414063	-321.2944030761719	486.9124450683595	1317.643676757813	-333.1977844238282	521.9968261718751	1320.86865234375	-398.9197082519532	569.2286987304689	1330.349243164063	-417.810272216797	463.9762268066407	1040.935913085938	-483.3111877441407	454.5803222656251	1035.622192382813	-405.3930664062501	434.4823608398439	1027.136962890625	-451.9982299804689	475.3431091308595	798.6704101562502	-482.2039489746095	409.9883117675782	824.157653808594	-518.4038696289064	469.7404174804689	731.6602172851564	-494.2127075195314	385.2957763671876	768.2503662109377	-520.0557250976564	454.163299560547	1186.507080078125	-154.2631225585938	498.5205383300782	1310.663452148438	-154.4290466308594	558.8599243164064	1314.266723632813	-87.2216262817383	606.7352905273439	1317.522827148438	-77.54797363281251	625.3427124023439	996.203308105469	10.62863826751709	585.3194580078126	974.7715454101565	-49.49911499023439	602.8135986328126	957.5151367187502	-5.253967285156251	785.610778808594	835.739440917969	-31.24634552001954	748.9981079101564	813.1718750000002	13.89640712738037	846.963317871094	780.9758300781252	-30.39439392089844	784.3680419921877	755.6328125000001	20.28335189819336	
